# xmcd
#
# Track frame offsets:
#	150
#	17615
#	36408
#	53373
#	71028
#	90312
#	103558
#	117172
#	133050
#	143915
#	156281
#	174356
#	192093
#	210116
#	227263
#	242751
#	258686
#	280838
#	296961
#	313959
#	334163
#
# Disc length: 4674
#
# Revision: 1
# Processed by: cddbd v1.5.2PL0 Copyright (c) Steve Scherf et al.
# Submitted via: kJams 2 (development) 2.0patch7
#
DISCID=2b124015
DTITLE=Various Artist - Zoom Pop Chart Picks 2016 CD4
DYEAR=2016
DGENRE=Karaoke
TTITLE0=DNCE - Cake By The Ocean
TTITLE1=Lukas Graham - 7 Years
TTITLE2=James Bay - Best Fake Smile
TTITLE3=Meghan Trainor - No
TTITLE4=Meghan Trainor - Hopeless Romantic
TTITLE5=Meghan Trainor - Just A Friend To You (For Solo Female)
TTITLE6=Meghan Trainor - I Love Me (Ft. Lunchmoney Lewis) (For Solo Female)
TTITLE7=Ariana Grande - One Last Time
TTITLE8=Bryan Adams - Do What Ya Gotta Do
TTITLE9=Bryan Adams - You Belong To Me
TTITLE10=Calvin Harris - This Is What You Came For (Ft. Rihanna)
TTITLE11=Coldplay - Hymn For The Weekend (Ft. Beyonce)
TTITLE12=Ellie Goulding - Something In The Way You Move
TTITLE13=Fifth Harmony - Work From Home (Ft. TY Dolla $ign) (For Solo Female)
TTITLE14=Flo Rida - My House
TTITLE15=Justin Bieber - I'll Show You
TTITLE16=Mike Posner - I Took A Pill In Ibiza (Original Version)
TTITLE17=Mike Posner - I Took A Pill In Ibiza (SeeB Remix)
TTITLE18=Rick Astley - Keep Singing
TTITLE19=Corrs, The - The Corrs – Bring On The Night
TTITLE20=Zayn Malik - Pillowtalk
EXTD=
EXTT0=
EXTT1=
EXTT2=
EXTT3=
EXTT4=
EXTT5=
EXTT6=
EXTT7=
EXTT8=
EXTT9=
EXTT10=
EXTT11=
EXTT12=
EXTT13=
EXTT14=
EXTT15=
EXTT16=
EXTT17=
EXTT18=
EXTT19=
EXTT20=
PLAYORDER=
